<svg width="76" height="76" viewBox="0 0 76 76" fill="none" xmlns="http://www.w3.org/2000/svg">
<path d="M37.9131 0.75C3.44871 0.75 0.75 3.44871 0.75 37.9131V38.5869C0.75 73.0513 3.44871 75.75 37.9131 75.75H38.5869C73.0513 75.75 75.75 73.0513 75.75 38.5869V38.25C75.75 3.4725 73.0275 0.75 38.25 0.75H37.9131ZM30.75 8.25H45.75C66.6169 8.25 68.25 9.88313 68.25 30.75V45.75C68.25 66.6169 66.6169 68.25 45.75 68.25H30.75C9.88313 68.25 8.25 66.6169 8.25 45.75V30.75C8.25 9.88313 9.88313 8.25 30.75 8.25ZM56.989 15.75C54.9171 15.7556 53.2444 17.4391 53.25 19.511C53.2556 21.5829 54.9391 23.2556 57.011 23.25C59.0829 23.2444 60.7556 21.5609 60.75 19.489C60.7444 17.4171 59.0609 15.7444 56.989 15.75ZM38.2061 19.5C27.8523 19.5244 19.4756 27.9402 19.5 38.294C19.5244 48.6477 27.9402 57.0244 38.294 57C48.6477 56.9756 57.0244 48.5598 57 38.2061C56.9756 27.8523 48.5598 19.4756 38.2061 19.5ZM38.2244 27C44.4362 26.985 49.485 32.0125 49.5 38.2244C49.5131 44.4362 44.4875 49.485 38.2756 49.5C32.0638 49.515 27.015 44.4894 27 38.2756C26.985 32.0638 32.0125 27.015 38.2244 27Z" fill="white"/>
</svg>