<svg width="76" height="76" viewBox="0 0 76 76" fill="none" xmlns="http://www.w3.org/2000/svg">
<path d="M8.83334 0.5C4.22917 0.5 0.5 4.22917 0.5 8.83334V67.1667C0.5 71.7709 4.22917 75.5 8.83334 75.5H67.1667C71.7709 75.5 75.5 71.7709 75.5 67.1667V8.83334C75.5 4.22917 71.7709 0.5 67.1667 0.5H8.83334ZM8.83334 8.83334H67.1667V67.1667H8.83334V8.83334ZM20.4138 14.3184C16.8429 14.3184 14.7009 16.4649 14.7009 19.3233C14.7009 22.1816 16.8432 24.32 20.0557 24.32C23.6265 24.32 25.7686 22.1816 25.7686 19.3233C25.7686 16.4649 23.6263 14.3184 20.4138 14.3184ZM14.9857 29.6667V58.8334H25.5V29.6667H14.9857ZM34.1751 29.6667V58.8334H44.6895V42.891C44.6895 38.1451 48.0755 37.4629 49.0921 37.4629C50.1088 37.4629 52.8275 38.4826 52.8275 42.891V58.8334H63.0001V42.891C63.0001 33.7368 58.9323 29.6667 53.8448 29.6667C48.7573 29.6667 46.0437 31.3607 44.6895 33.7357V29.6667H34.1751Z" fill="white"/>
</svg>