<svg width="76" height="76" viewBox="0 0 76 76" fill="none" xmlns="http://www.w3.org/2000/svg">
<path fill-rule="evenodd" clip-rule="evenodd" d="M38 0.5C17.2847 0.5 0.5 17.7086 0.5 38.9472C0.5 55.9306 11.2422 70.3483 26.147 75.4296C28.0268 75.78 28.7104 74.6036 28.7104 73.5773C28.7104 72.6637 28.6738 70.2482 28.6616 67.0443C18.2246 69.3597 16.0273 61.888 16.0273 61.888C14.3184 57.445 11.8647 56.2561 11.8647 56.2561C8.459 53.8781 12.1211 53.9282 12.1211 53.9282C15.8809 54.2036 17.8584 57.8831 17.8584 57.8831C21.2031 63.7653 26.6352 62.0632 28.7715 61.087C29.1133 58.5965 30.0899 56.9069 31.1519 55.9432C22.8267 54.9795 14.0742 51.6755 14.0742 36.9448C14.0742 32.7397 15.5391 29.3105 17.9317 26.6196C17.5533 25.656 16.2593 21.7386 18.2979 16.4446C18.2979 16.4446 21.4473 15.4184 28.6128 20.387C31.6036 19.536 34.814 19.1104 38.0001 19.0979C41.1861 19.1105 44.3966 19.536 47.3873 20.387C54.5528 15.4184 57.69 16.4446 57.69 16.4446C59.7408 21.7386 58.4591 25.656 58.0684 26.6196C60.4732 29.3104 61.9137 32.7397 61.9137 36.9448C61.9137 51.713 53.149 54.9545 44.7994 55.9182C46.1422 57.0946 47.3385 59.4475 47.3385 63.0269C47.3385 68.1707 47.3018 72.3133 47.3018 73.5774C47.3018 74.6036 47.9732 75.8051 49.8775 75.4297C64.7701 70.3359 75.5001 55.9307 75.5001 38.9473C75.5001 17.7087 58.7153 0.5 38 0.5Z" fill="white"/>
</svg>