<svg width="180" height="180" viewBox="0 0 180 180" fill="none" xmlns="http://www.w3.org/2000/svg">
<circle cx="90" cy="90" r="90" fill="#282828"/>
<path d="M66.8787 109.305C65.7071 110.477 65.7071 112.377 66.8787 113.548C68.0503 114.72 69.9497 114.72 71.1213 113.548L66.8787 109.305ZM114.426 69.0003C114.426 67.3435 113.083 66.0003 111.426 66.0003L84.4264 66.0003C82.7696 66.0003 81.4264 67.3435 81.4264 69.0003C81.4264 70.6572 82.7696 72.0003 84.4264 72.0003L108.426 72.0003L108.426 96.0003C108.426 97.6572 109.77 99.0003 111.426 99.0003C113.083 99.0003 114.426 97.6572 114.426 96.0003L114.426 69.0003ZM71.1213 113.548L113.548 71.1217L109.305 66.879L66.8787 109.305L71.1213 113.548Z" fill="#9D774F"/>
</svg>